<svg xmlns="http://www.w3.org/2000/svg" viewBox="0 0 100 100">
  <symbol id="cat" viewBox="0 0 64 64">
    <path d="M32 2C15.5 2 2 15.5 2 32s13.5 30 30 30 30-13.5 30-30S48.5 2 32 2zm0 56c-14.4 0-26-11.6-26-26S17.6 6 32 6s26 11.6 26 26-11.6 26-26 26z"/>
    <path d="M32 10c-12.2 0-22 9.8-22 22s9.8 22 22 22 22-9.8 22-22-9.8-22-22-22zm0 40c-9.9 0-18-8.1-18-18s8.1-18 18-18 18 8.1 18 18-8.1 18-18 18z"/>
  </symbol>
  <symbol id="dog" viewBox="0 0 64 64">
    <path d="M32 2C15.5 2 2 15.5 2 32s13.5 30 30 30 30-13.5 30-30S48.5 2 32 2zm0 56c-14.4 0-26-11.6-26-26S17.6 6 32 6s26 11.6 26 26-11.6 26-26 26z"/>
    <path d="M32 10c-12.2 0-22 9.8-22 22s9.8 22 22 22 22-9.8 22-22-9.8-22-22-22zm0 40c-9.9 0-18-8.1-18-18s8.1-18 18-18 18 8.1 18 18-8.1 18-18 18z"/>
  </symbol>
  <symbol id="rabbit" viewBox="0 0 64 64">
    <path d="M32 2C15.5 2 2 15.5 2 32s13.5 30 30 30 30-13.5 30-30S48.5 2 32 2zm0 56c-14.4 0-26-11.6-26-26S17.6 6 32 6s26 11.6 26 26-11.6 26-26 26z"/>
    <path d="M32 10c-12.2 0-22 9.8-22 22s9.8 22 22 22 22-9.8 22-22-9.8-22-22-22zm0 40c-9.9 0-18-8.1-18-18s8.1-18 18-18 18 8.1 18 18-8.1 18-18 18z"/>
  </symbol>
  <symbol id="turtle" viewBox="0 0 64 64">
    <path d="M32 2C15.5 2 2 15.5 2 32s13.5 30 30 30 30-13.5 30-30S48.5 2 32 2zm0 56c-14.4 0-26-11.6-26-26S17.6 6 32 6s26 11.6 26 26-11.6 26-26 26z"/>
    <path d="M32 10c-12.2 0-22 9.8-22 22s9.8 22 22 22 22-9.8 22-22-9.8-22-22-22zm0 40c-9.9 0-18-8.1-18-18s8.1-18 18-18 18 8.1 18 18-8.1 18-18 18z"/>
  </symbol>
</svg>